<svg xmlns="http://www.w3.org/2000/svg" viewBox="0 0 760 320" font-family="ui-sans-serif,system-ui,sans-serif"><rect width="760" height="320" fill="white"/><text x="56" y="18" font-size="14" font-weight="600" fill="#111">Deadline drop, backend deadline < client — bounded AND good — queue depth</text><rect x="208.9" y="28" width="76.4" height="256" fill="#f0f0f0"/><text x="211.9" y="40" font-size="10" fill="#999">spike</text><line x1="56" y1="284.0" x2="744" y2="284.0" stroke="#eee"/><text x="50" y="287.0" font-size="10" fill="#888" text-anchor="end">0</text><line x1="56" y1="232.8" x2="744" y2="232.8" stroke="#eee"/><text x="50" y="235.8" font-size="10" fill="#888" text-anchor="end">1k</text><line x1="56" y1="181.6" x2="744" y2="181.6" stroke="#eee"/><text x="50" y="184.6" font-size="10" fill="#888" text-anchor="end">2k</text><line x1="56" y1="130.4" x2="744" y2="130.4" stroke="#eee"/><text x="50" y="133.4" font-size="10" fill="#888" text-anchor="end">3k</text><line x1="56" y1="79.2" x2="744" y2="79.2" stroke="#eee"/><text x="50" y="82.2" font-size="10" fill="#888" text-anchor="end">4k</text><line x1="56" y1="28.0" x2="744" y2="28.0" stroke="#eee"/><text x="50" y="31.0" font-size="10" fill="#888" text-anchor="end">5k</text><text x="56.0" y="300" font-size="10" fill="#888" text-anchor="middle">0s</text><text x="208.9" y="300" font-size="10" fill="#888" text-anchor="middle">20s</text><text x="361.8" y="300" font-size="10" fill="#888" text-anchor="middle">40s</text><text x="514.7" y="300" font-size="10" fill="#888" text-anchor="middle">60s</text><text x="667.6" y="300" font-size="10" fill="#888" text-anchor="middle">80s</text><polyline fill="none" stroke="#d62728" stroke-width="2" points="63.6,284.0 71.3,284.0 78.9,283.8 86.6,284.0 94.2,284.0 101.9,284.0 109.5,284.0 117.2,283.9 124.8,283.8 132.4,284.0 140.1,283.7 147.7,284.0 155.4,284.0 163.0,284.0 170.7,283.9 178.3,284.0 186.0,284.0 193.6,284.0 201.2,284.0 208.9,284.0 216.5,271.6 224.2,258.2 231.8,245.2 239.5,232.3 247.1,216.2 254.8,202.5 262.4,189.5 270.0,176.2 277.7,162.9 285.3,151.0 293.0,152.9 300.6,149.7 308.3,151.8 315.9,153.2 323.6,154.0 331.2,156.4 338.8,158.6 346.5,161.2 354.1,157.6 361.8,159.6 369.4,161.4 377.1,164.2 384.7,166.1 392.4,168.5 400.0,164.9 407.6,167.1 415.3,168.9 422.9,170.8 430.6,171.9 438.2,173.8 445.9,175.3 453.5,171.2 461.2,172.1 468.8,172.4 476.4,172.6 484.1,175.0 491.7,178.5 499.4,180.2 507.0,179.1 514.7,179.6 522.3,181.2 530.0,181.8 537.6,184.6 545.2,187.7 552.9,190.7 560.5,186.3 568.2,187.2 575.8,188.2 583.5,189.5 591.1,193.5 598.8,197.7 606.4,203.5 614.0,203.1 621.7,208.8 629.3,214.2 637.0,220.1 644.6,226.4 652.3,231.5 659.9,235.3 667.6,238.2 675.2,241.3 682.8,243.3 690.5,245.5 698.1,247.5 705.8,250.8 713.4,252.7 721.1,252.9 728.7,254.6 736.4,255.9 744.0,256.4"/><rect x="594.0" y="34.0" width="12" height="3" fill="#d62728"/><text x="612.0" y="38.0" font-size="11" fill="#333">queue depth</text></svg>