<svg xmlns="http://www.w3.org/2000/svg" viewBox="0 0 760 320" font-family="ui-sans-serif,system-ui,sans-serif"><rect width="760" height="320" fill="white"/><text x="56" y="18" font-size="14" font-weight="600" fill="#111">LIFO — newest first, goodput survives (queue still grows) — offered load</text><rect x="208.9" y="28" width="76.4" height="256" fill="#f0f0f0"/><text x="211.9" y="40" font-size="10" fill="#999">spike</text><line x1="56" y1="284.0" x2="744" y2="284.0" stroke="#eee"/><text x="50" y="287.0" font-size="10" fill="#888" text-anchor="end">0</text><line x1="56" y1="232.8" x2="744" y2="232.8" stroke="#eee"/><text x="50" y="235.8" font-size="10" fill="#888" text-anchor="end">1k</text><line x1="56" y1="181.6" x2="744" y2="181.6" stroke="#eee"/><text x="50" y="184.6" font-size="10" fill="#888" text-anchor="end">2k</text><line x1="56" y1="130.4" x2="744" y2="130.4" stroke="#eee"/><text x="50" y="133.4" font-size="10" fill="#888" text-anchor="end">3k</text><line x1="56" y1="79.2" x2="744" y2="79.2" stroke="#eee"/><text x="50" y="82.2" font-size="10" fill="#888" text-anchor="end">4k</text><line x1="56" y1="28.0" x2="744" y2="28.0" stroke="#eee"/><text x="50" y="31.0" font-size="10" fill="#888" text-anchor="end">5k</text><text x="56.0" y="300" font-size="10" fill="#888" text-anchor="middle">0s</text><text x="208.9" y="300" font-size="10" fill="#888" text-anchor="middle">20s</text><text x="361.8" y="300" font-size="10" fill="#888" text-anchor="middle">40s</text><text x="514.7" y="300" font-size="10" fill="#888" text-anchor="middle">60s</text><text x="667.6" y="300" font-size="10" fill="#888" text-anchor="middle">80s</text><polyline fill="none" stroke="#9467bd" stroke-width="2" points="63.6,280.6 71.3,281.0 78.9,280.3 86.6,281.2 94.2,281.4 101.9,281.5 109.5,281.2 117.2,280.8 124.8,280.4 132.4,280.3 140.1,280.4 147.7,280.9 155.4,280.7 163.0,280.9 170.7,281.3 178.3,281.0 186.0,280.5 193.6,281.2 201.2,280.7 208.9,281.1 216.5,267.7 224.2,253.0 231.8,238.4 239.5,224.2 247.1,210.4 254.8,196.1 262.4,182.2 270.0,167.7 277.7,153.6 285.3,140.4 293.0,140.3 300.6,141.8 308.3,141.9 315.9,144.5 323.6,144.0 331.2,145.5 338.8,146.7 346.5,148.4 354.1,149.4 361.8,149.8 369.4,151.4 377.1,152.4 384.7,154.1 392.4,154.3 400.0,155.9 407.6,156.1 415.3,158.4 422.9,159.8 430.6,160.7 438.2,162.3 445.9,162.9 453.5,162.5 461.2,163.1 468.8,164.0 476.4,164.3 484.1,165.4 491.7,167.1 499.4,167.1 507.0,169.2 514.7,169.2 522.3,171.3 530.0,172.6 537.6,173.0 545.2,175.6 552.9,175.9 560.5,176.6 568.2,177.7 575.8,178.7 583.5,180.0 591.1,182.2 598.8,185.2 606.4,189.3 614.0,194.0 621.7,198.6 629.3,204.2 637.0,207.5 644.6,211.6 652.3,215.3 659.9,219.3 667.6,224.1 675.2,226.5 682.8,228.2 690.5,230.5 698.1,232.2 705.8,234.4 713.4,235.5 721.1,236.9 728.7,238.8 736.4,240.3 744.0,241.2"/><rect x="594.0" y="34.0" width="12" height="3" fill="#9467bd"/><text x="612.0" y="38.0" font-size="11" fill="#333">offered (incl. retries)</text></svg>