<svg xmlns="http://www.w3.org/2000/svg" viewBox="0 0 760 320" font-family="ui-sans-serif,system-ui,sans-serif"><rect width="760" height="320" fill="white"/><text x="56" y="18" font-size="14" font-weight="600" fill="#111">LIFO — newest first, goodput survives (queue still grows) — queue depth</text><rect x="208.9" y="28" width="76.4" height="256" fill="#f0f0f0"/><text x="211.9" y="40" font-size="10" fill="#999">spike</text><line x1="56" y1="284.0" x2="744" y2="284.0" stroke="#eee"/><text x="50" y="287.0" font-size="10" fill="#888" text-anchor="end">0</text><line x1="56" y1="232.8" x2="744" y2="232.8" stroke="#eee"/><text x="50" y="235.8" font-size="10" fill="#888" text-anchor="end">40k</text><line x1="56" y1="181.6" x2="744" y2="181.6" stroke="#eee"/><text x="50" y="184.6" font-size="10" fill="#888" text-anchor="end">80k</text><line x1="56" y1="130.4" x2="744" y2="130.4" stroke="#eee"/><text x="50" y="133.4" font-size="10" fill="#888" text-anchor="end">120k</text><line x1="56" y1="79.2" x2="744" y2="79.2" stroke="#eee"/><text x="50" y="82.2" font-size="10" fill="#888" text-anchor="end">160k</text><line x1="56" y1="28.0" x2="744" y2="28.0" stroke="#eee"/><text x="50" y="31.0" font-size="10" fill="#888" text-anchor="end">200k</text><text x="56.0" y="300" font-size="10" fill="#888" text-anchor="middle">0s</text><text x="208.9" y="300" font-size="10" fill="#888" text-anchor="middle">20s</text><text x="361.8" y="300" font-size="10" fill="#888" text-anchor="middle">40s</text><text x="514.7" y="300" font-size="10" fill="#888" text-anchor="middle">60s</text><text x="667.6" y="300" font-size="10" fill="#888" text-anchor="middle">80s</text><polyline fill="none" stroke="#d62728" stroke-width="2" points="63.6,284.0 71.3,284.0 78.9,284.0 86.6,284.0 94.2,284.0 101.9,284.0 109.5,284.0 117.2,284.0 124.8,284.0 132.4,284.0 140.1,284.0 147.7,284.0 155.4,284.0 163.0,284.0 170.7,284.0 178.3,284.0 186.0,284.0 193.6,284.0 201.2,284.0 208.9,284.0 216.5,283.7 224.2,283.0 231.8,282.0 239.5,280.6 247.1,278.9 254.8,276.8 262.4,274.3 270.0,271.5 277.7,268.3 285.3,264.9 293.0,261.4 300.6,257.9 308.3,254.5 315.9,251.1 323.6,247.7 331.2,244.3 338.8,241.0 346.5,237.7 354.1,234.4 361.8,231.2 369.4,228.0 377.1,224.8 384.7,221.6 392.4,218.5 400.0,215.4 407.6,212.3 415.3,209.3 422.9,206.3 430.6,203.3 438.2,200.3 445.9,197.4 453.5,194.5 461.2,191.5 468.8,188.6 476.4,185.8 484.1,182.9 491.7,180.1 499.4,177.3 507.0,174.5 514.7,171.7 522.3,169.0 530.0,166.3 537.6,163.6 545.2,161.0 552.9,158.4 560.5,155.8 568.2,153.3 575.8,150.8 583.5,148.3 591.1,145.8 598.8,143.4 606.4,141.2 614.0,139.0 621.7,137.0 629.3,135.1 637.0,133.3 644.6,131.6 652.3,130.0 659.9,128.5 667.6,127.1 675.2,125.7 682.8,124.4 690.5,123.2 698.1,122.0 705.8,120.9 713.4,119.8 721.1,118.7 728.7,117.7 736.4,116.7 744.0,115.7"/><rect x="594.0" y="34.0" width="12" height="3" fill="#d62728"/><text x="612.0" y="38.0" font-size="11" fill="#333">queue depth</text></svg>