<svg xmlns="http://www.w3.org/2000/svg" viewBox="0 0 760 320" font-family="ui-sans-serif,system-ui,sans-serif"><rect width="760" height="320" fill="white"/><text x="56" y="18" font-size="14" font-weight="600" fill="#111">Deadline drop, margin 0 — queue bounded, goodput still 0 — offered load</text><rect x="208.9" y="28" width="76.4" height="256" fill="#f0f0f0"/><text x="211.9" y="40" font-size="10" fill="#999">spike</text><line x1="56" y1="284.0" x2="744" y2="284.0" stroke="#eee"/><text x="50" y="287.0" font-size="10" fill="#888" text-anchor="end">0</text><line x1="56" y1="232.8" x2="744" y2="232.8" stroke="#eee"/><text x="50" y="235.8" font-size="10" fill="#888" text-anchor="end">2k</text><line x1="56" y1="181.6" x2="744" y2="181.6" stroke="#eee"/><text x="50" y="184.6" font-size="10" fill="#888" text-anchor="end">4k</text><line x1="56" y1="130.4" x2="744" y2="130.4" stroke="#eee"/><text x="50" y="133.4" font-size="10" fill="#888" text-anchor="end">6k</text><line x1="56" y1="79.2" x2="744" y2="79.2" stroke="#eee"/><text x="50" y="82.2" font-size="10" fill="#888" text-anchor="end">8k</text><line x1="56" y1="28.0" x2="744" y2="28.0" stroke="#eee"/><text x="50" y="31.0" font-size="10" fill="#888" text-anchor="end">10k</text><text x="56.0" y="300" font-size="10" fill="#888" text-anchor="middle">0s</text><text x="208.9" y="300" font-size="10" fill="#888" text-anchor="middle">20s</text><text x="361.8" y="300" font-size="10" fill="#888" text-anchor="middle">40s</text><text x="514.7" y="300" font-size="10" fill="#888" text-anchor="middle">60s</text><text x="667.6" y="300" font-size="10" fill="#888" text-anchor="middle">80s</text><polyline fill="none" stroke="#9467bd" stroke-width="2" points="63.6,282.3 71.3,282.5 78.9,282.2 86.6,282.6 94.2,282.7 101.9,282.8 109.5,282.6 117.2,282.4 124.8,282.2 132.4,282.1 140.1,282.3 147.7,282.4 155.4,282.4 163.0,282.4 170.7,282.6 178.3,282.5 186.0,282.3 193.6,282.6 201.2,282.4 208.9,282.5 216.5,275.6 224.2,268.9 231.8,259.7 239.5,250.7 247.1,241.8 254.8,232.5 262.4,223.4 270.0,214.3 277.7,205.1 285.3,196.2 293.0,194.7 300.6,193.2 308.3,191.4 315.9,189.9 323.6,188.5 331.2,187.5 338.8,185.4 346.5,184.7 354.1,183.0 361.8,181.3 369.4,179.3 377.1,178.9 384.7,176.8 392.4,175.9 400.0,173.8 407.6,172.8 415.3,171.4 422.9,170.5 430.6,168.3 438.2,166.8 445.9,165.2 453.5,164.0 461.2,161.7 468.8,159.7 476.4,158.1 484.1,156.8 491.7,155.5 499.4,153.8 507.0,152.5 514.7,150.8 522.3,149.6 530.0,147.9 537.6,146.5 545.2,145.5 552.9,144.1 560.5,142.0 568.2,141.3 575.8,139.6 583.5,137.8 591.1,136.5 598.8,138.2 606.4,145.0 614.0,151.8 621.7,159.4 629.3,168.3 637.0,174.8 644.6,182.9 652.3,189.4 659.9,197.0 667.6,204.9 675.2,208.1 682.8,208.4 690.5,208.2 698.1,208.2 705.8,208.5 713.4,209.1 721.1,208.6 728.7,209.0 736.4,208.6 744.0,208.5"/><rect x="594.0" y="34.0" width="12" height="3" fill="#9467bd"/><text x="612.0" y="38.0" font-size="11" fill="#333">offered (incl. retries)</text></svg>