<svg xmlns="http://www.w3.org/2000/svg" viewBox="0 0 760 320" font-family="ui-sans-serif,system-ui,sans-serif"><rect width="760" height="320" fill="white"/><text x="56" y="18" font-size="14" font-weight="600" fill="#111">Goodput by queue discipline</text><rect x="208.9" y="28" width="76.4" height="256" fill="#f0f0f0"/><text x="211.9" y="40" font-size="10" fill="#999">spike</text><line x1="56" y1="284.0" x2="744" y2="284.0" stroke="#eee"/><text x="50" y="287.0" font-size="10" fill="#888" text-anchor="end">0</text><line x1="56" y1="232.8" x2="744" y2="232.8" stroke="#eee"/><text x="50" y="235.8" font-size="10" fill="#888" text-anchor="end">20</text><line x1="56" y1="181.6" x2="744" y2="181.6" stroke="#eee"/><text x="50" y="184.6" font-size="10" fill="#888" text-anchor="end">40</text><line x1="56" y1="130.4" x2="744" y2="130.4" stroke="#eee"/><text x="50" y="133.4" font-size="10" fill="#888" text-anchor="end">60</text><line x1="56" y1="79.2" x2="744" y2="79.2" stroke="#eee"/><text x="50" y="82.2" font-size="10" fill="#888" text-anchor="end">80</text><line x1="56" y1="28.0" x2="744" y2="28.0" stroke="#eee"/><text x="50" y="31.0" font-size="10" fill="#888" text-anchor="end">100</text><text x="56.0" y="300" font-size="10" fill="#888" text-anchor="middle">0s</text><text x="208.9" y="300" font-size="10" fill="#888" text-anchor="middle">20s</text><text x="361.8" y="300" font-size="10" fill="#888" text-anchor="middle">40s</text><text x="514.7" y="300" font-size="10" fill="#888" text-anchor="middle">60s</text><text x="667.6" y="300" font-size="10" fill="#888" text-anchor="middle">80s</text><polyline fill="none" stroke="#d62728" stroke-width="2" points="63.6,117.6 71.3,140.6 78.9,107.4 86.6,133.0 94.2,156.0 101.9,166.2 109.5,140.6 117.2,130.4 124.8,109.9 132.4,92.0 140.1,120.2 147.7,115.0 155.4,120.2 163.0,122.7 170.7,150.9 178.3,133.0 186.0,109.9 193.6,143.2 201.2,125.3 208.9,130.4 216.5,86.9 224.2,212.3 231.8,284.0 239.5,284.0 247.1,284.0 254.8,284.0 262.4,284.0 270.0,284.0 277.7,284.0 285.3,284.0 293.0,284.0 300.6,284.0 308.3,284.0 315.9,284.0 323.6,284.0 331.2,284.0 338.8,284.0 346.5,284.0 354.1,284.0 361.8,284.0 369.4,284.0 377.1,284.0 384.7,284.0 392.4,284.0 400.0,284.0 407.6,284.0 415.3,284.0 422.9,284.0 430.6,284.0 438.2,284.0 445.9,284.0 453.5,284.0 461.2,284.0 468.8,284.0 476.4,284.0 484.1,284.0 491.7,284.0 499.4,284.0 507.0,284.0 514.7,284.0 522.3,284.0 530.0,284.0 537.6,284.0 545.2,284.0 552.9,284.0 560.5,284.0 568.2,284.0 575.8,284.0 583.5,284.0 591.1,284.0 598.8,284.0 606.4,284.0 614.0,284.0 621.7,284.0 629.3,284.0 637.0,284.0 644.6,284.0 652.3,284.0 659.9,284.0 667.6,284.0 675.2,284.0 682.8,284.0 690.5,284.0 698.1,284.0 705.8,284.0 713.4,284.0 721.1,284.0 728.7,284.0 736.4,284.0 744.0,284.0"/><rect x="594.0" y="34.0" width="12" height="3" fill="#d62728"/><text x="612.0" y="38.0" font-size="11" fill="#333">fifo</text><polyline fill="none" stroke="#1f77b4" stroke-width="2" points="63.6,115.0 71.3,143.2 78.9,107.4 86.6,133.0 94.2,156.0 101.9,163.7 109.5,138.1 117.2,130.4 124.8,107.4 132.4,99.7 140.1,115.0 147.7,117.6 155.4,120.2 163.0,122.7 170.7,153.4 178.3,130.4 186.0,107.4 193.6,148.3 201.2,122.7 208.9,133.0 216.5,84.3 224.2,81.8 231.8,79.2 239.5,79.2 247.1,84.3 254.8,79.2 262.4,79.2 270.0,84.3 277.7,79.2 285.3,79.2 293.0,79.2 300.6,84.3 308.3,79.2 315.9,79.2 323.6,84.3 331.2,79.2 338.8,79.2 346.5,79.2 354.1,79.2 361.8,84.3 369.4,79.2 377.1,84.3 384.7,79.2 392.4,79.2 400.0,79.2 407.6,84.3 415.3,79.2 422.9,79.2 430.6,84.3 438.2,79.2 445.9,79.2 453.5,79.2 461.2,84.3 468.8,79.2 476.4,84.3 484.1,79.2 491.7,79.2 499.4,79.2 507.0,84.3 514.7,79.2 522.3,79.2 530.0,84.3 537.6,79.2 545.2,79.2 552.9,79.2 560.5,84.3 568.2,79.2 575.8,84.3 583.5,79.2 591.1,79.2 598.8,79.2 606.4,79.2 614.0,79.2 621.7,89.4 629.3,79.2 637.0,79.2 644.6,79.2 652.3,79.2 659.9,79.2 667.6,84.3 675.2,84.3 682.8,79.2 690.5,79.2 698.1,79.2 705.8,79.2 713.4,81.8 721.1,81.8 728.7,84.3 736.4,79.2 744.0,79.2"/><rect x="594.0" y="50.0" width="12" height="3" fill="#1f77b4"/><text x="612.0" y="54.0" font-size="11" fill="#333">lifo</text><polyline fill="none" stroke="#ff7f0e" stroke-width="2" points="63.6,117.6 71.3,140.6 78.9,107.4 86.6,133.0 94.2,156.0 101.9,166.2 109.5,135.5 117.2,135.5 124.8,109.9 132.4,92.0 140.1,115.0 147.7,117.6 155.4,122.7 163.0,122.7 170.7,150.9 178.3,133.0 186.0,109.9 193.6,145.8 201.2,122.7 208.9,133.0 216.5,84.3 224.2,212.3 231.8,284.0 239.5,284.0 247.1,284.0 254.8,284.0 262.4,284.0 270.0,284.0 277.7,284.0 285.3,284.0 293.0,284.0 300.6,284.0 308.3,284.0 315.9,284.0 323.6,284.0 331.2,284.0 338.8,284.0 346.5,284.0 354.1,284.0 361.8,284.0 369.4,284.0 377.1,284.0 384.7,284.0 392.4,284.0 400.0,284.0 407.6,284.0 415.3,284.0 422.9,284.0 430.6,284.0 438.2,284.0 445.9,284.0 453.5,284.0 461.2,284.0 468.8,284.0 476.4,284.0 484.1,284.0 491.7,284.0 499.4,284.0 507.0,284.0 514.7,284.0 522.3,284.0 530.0,284.0 537.6,284.0 545.2,284.0 552.9,284.0 560.5,284.0 568.2,284.0 575.8,284.0 583.5,284.0 591.1,284.0 598.8,284.0 606.4,284.0 614.0,284.0 621.7,284.0 629.3,284.0 637.0,284.0 644.6,284.0 652.3,284.0 659.9,284.0 667.6,284.0 675.2,284.0 682.8,284.0 690.5,284.0 698.1,284.0 705.8,284.0 713.4,284.0 721.1,284.0 728.7,284.0 736.4,284.0 744.0,284.0"/><rect x="594.0" y="66.0" width="12" height="3" fill="#ff7f0e"/><text x="612.0" y="70.0" font-size="11" fill="#333">deadline_naive</text><polyline fill="none" stroke="#2ca02c" stroke-width="2" points="63.6,115.0 71.3,143.2 78.9,107.4 86.6,133.0 94.2,156.0 101.9,166.2 109.5,135.5 117.2,135.5 124.8,109.9 132.4,92.0 140.1,120.2 147.7,115.0 155.4,120.2 163.0,125.3 170.7,153.4 178.3,130.4 186.0,107.4 193.6,145.8 201.2,122.7 208.9,133.0 216.5,84.3 224.2,79.2 231.8,79.2 239.5,81.8 247.1,86.9 254.8,79.2 262.4,79.2 270.0,79.2 277.7,79.2 285.3,79.2 293.0,81.8 300.6,86.9 308.3,79.2 315.9,79.2 323.6,79.2 331.2,79.2 338.8,79.2 346.5,81.8 354.1,86.9 361.8,79.2 369.4,79.2 377.1,79.2 384.7,79.2 392.4,79.2 400.0,89.4 407.6,79.2 415.3,79.2 422.9,79.2 430.6,79.2 438.2,79.2 445.9,81.8 453.5,86.9 461.2,79.2 468.8,79.2 476.4,79.2 484.1,79.2 491.7,81.8 499.4,81.8 507.0,84.3 514.7,79.2 522.3,79.2 530.0,79.2 537.6,79.2 545.2,79.2 552.9,84.3 560.5,84.3 568.2,79.2 575.8,79.2 583.5,79.2 591.1,79.2 598.8,81.8 606.4,81.8 614.0,84.3 621.7,79.2 629.3,79.2 637.0,79.2 644.6,79.2 652.3,81.8 659.9,81.8 667.6,84.3 675.2,79.2 682.8,79.2 690.5,79.2 698.1,79.2 705.8,84.3 713.4,79.2 721.1,84.3 728.7,79.2 736.4,79.2 744.0,79.2"/><rect x="594.0" y="82.0" width="12" height="3" fill="#2ca02c"/><text x="612.0" y="86.0" font-size="11" fill="#333">deadline</text></svg>