<svg xmlns="http://www.w3.org/2000/svg" viewBox="0 0 760 320" font-family="ui-sans-serif,system-ui,sans-serif"><rect width="760" height="320" fill="white"/><text x="56" y="18" font-size="14" font-weight="600" fill="#111">Deadline drop, backend deadline < client — bounded AND good — offered load</text><rect x="208.9" y="28" width="76.4" height="256" fill="#f0f0f0"/><text x="211.9" y="40" font-size="10" fill="#999">spike</text><line x1="56" y1="284.0" x2="744" y2="284.0" stroke="#eee"/><text x="50" y="287.0" font-size="10" fill="#888" text-anchor="end">0</text><line x1="56" y1="232.8" x2="744" y2="232.8" stroke="#eee"/><text x="50" y="235.8" font-size="10" fill="#888" text-anchor="end">1k</text><line x1="56" y1="181.6" x2="744" y2="181.6" stroke="#eee"/><text x="50" y="184.6" font-size="10" fill="#888" text-anchor="end">2k</text><line x1="56" y1="130.4" x2="744" y2="130.4" stroke="#eee"/><text x="50" y="133.4" font-size="10" fill="#888" text-anchor="end">3k</text><line x1="56" y1="79.2" x2="744" y2="79.2" stroke="#eee"/><text x="50" y="82.2" font-size="10" fill="#888" text-anchor="end">4k</text><line x1="56" y1="28.0" x2="744" y2="28.0" stroke="#eee"/><text x="50" y="31.0" font-size="10" fill="#888" text-anchor="end">5k</text><text x="56.0" y="300" font-size="10" fill="#888" text-anchor="middle">0s</text><text x="208.9" y="300" font-size="10" fill="#888" text-anchor="middle">20s</text><text x="361.8" y="300" font-size="10" fill="#888" text-anchor="middle">40s</text><text x="514.7" y="300" font-size="10" fill="#888" text-anchor="middle">60s</text><text x="667.6" y="300" font-size="10" fill="#888" text-anchor="middle">80s</text><polyline fill="none" stroke="#9467bd" stroke-width="2" points="63.6,280.6 71.3,281.0 78.9,280.3 86.6,281.2 94.2,281.4 101.9,281.6 109.5,281.1 117.2,280.8 124.8,280.5 132.4,280.3 140.1,280.5 147.7,280.9 155.4,280.7 163.0,280.8 170.7,281.3 178.3,281.0 186.0,280.5 193.6,281.2 201.2,280.8 208.9,281.0 216.5,267.5 224.2,256.8 231.8,242.1 239.5,228.0 247.1,214.5 254.8,199.9 262.4,186.0 270.0,171.6 277.7,157.3 285.3,144.3 293.0,144.9 300.6,146.3 308.3,146.9 315.9,146.9 323.6,147.6 331.2,150.1 338.8,151.1 346.5,152.5 354.1,153.6 361.8,154.3 369.4,154.9 377.1,157.3 384.7,157.7 392.4,159.4 400.0,160.6 407.6,160.7 415.3,162.0 422.9,163.7 430.6,164.3 438.2,166.1 445.9,166.6 453.5,168.2 461.2,167.0 468.8,167.4 476.4,167.6 484.1,170.0 491.7,172.0 499.4,171.7 507.0,174.2 514.7,172.7 522.3,174.4 530.0,174.9 537.6,177.6 545.2,179.1 552.9,180.4 560.5,181.2 568.2,181.3 575.8,182.3 583.5,183.5 591.1,187.2 598.8,188.7 606.4,193.5 614.0,197.9 621.7,203.7 629.3,209.4 637.0,215.3 644.6,221.8 652.3,226.2 659.9,230.4 667.6,235.6 675.2,238.9 682.8,241.1 690.5,242.9 698.1,244.8 705.8,248.2 713.4,248.4 721.1,250.2 728.7,251.9 736.4,253.2 744.0,253.6"/><rect x="594.0" y="34.0" width="12" height="3" fill="#9467bd"/><text x="612.0" y="38.0" font-size="11" fill="#333">offered (incl. retries)</text></svg>