<svg xmlns="http://www.w3.org/2000/svg" viewBox="0 0 760 320" font-family="ui-sans-serif,system-ui,sans-serif"><rect width="760" height="320" fill="white"/><text x="56" y="18" font-size="14" font-weight="600" fill="#111">Queue depth by queue discipline</text><rect x="208.9" y="28" width="76.4" height="256" fill="#f0f0f0"/><text x="211.9" y="40" font-size="10" fill="#999">spike</text><line x1="56" y1="284.0" x2="744" y2="284.0" stroke="#eee"/><text x="50" y="287.0" font-size="10" fill="#888" text-anchor="end">0</text><line x1="56" y1="232.8" x2="744" y2="232.8" stroke="#eee"/><text x="50" y="235.8" font-size="10" fill="#888" text-anchor="end">100k</text><line x1="56" y1="181.6" x2="744" y2="181.6" stroke="#eee"/><text x="50" y="184.6" font-size="10" fill="#888" text-anchor="end">200k</text><line x1="56" y1="130.4" x2="744" y2="130.4" stroke="#eee"/><text x="50" y="133.4" font-size="10" fill="#888" text-anchor="end">300k</text><line x1="56" y1="79.2" x2="744" y2="79.2" stroke="#eee"/><text x="50" y="82.2" font-size="10" fill="#888" text-anchor="end">400k</text><line x1="56" y1="28.0" x2="744" y2="28.0" stroke="#eee"/><text x="50" y="31.0" font-size="10" fill="#888" text-anchor="end">500k</text><text x="56.0" y="300" font-size="10" fill="#888" text-anchor="middle">0s</text><text x="208.9" y="300" font-size="10" fill="#888" text-anchor="middle">20s</text><text x="361.8" y="300" font-size="10" fill="#888" text-anchor="middle">40s</text><text x="514.7" y="300" font-size="10" fill="#888" text-anchor="middle">60s</text><text x="667.6" y="300" font-size="10" fill="#888" text-anchor="middle">80s</text><polyline fill="none" stroke="#d62728" stroke-width="2" points="63.6,284.0 71.3,284.0 78.9,284.0 86.6,284.0 94.2,284.0 101.9,284.0 109.5,284.0 117.2,284.0 124.8,284.0 132.4,284.0 140.1,284.0 147.7,284.0 155.4,284.0 163.0,284.0 170.7,284.0 178.3,284.0 186.0,284.0 193.6,284.0 201.2,284.0 208.9,284.0 216.5,283.9 224.2,283.6 231.8,283.1 239.5,282.5 247.1,281.7 254.8,280.7 262.4,279.5 270.0,278.1 277.7,276.6 285.3,274.9 293.0,273.1 300.6,271.3 308.3,269.5 315.9,267.6 323.6,265.7 331.2,263.8 338.8,261.9 346.5,259.9 354.1,257.9 361.8,255.8 369.4,253.8 377.1,251.7 384.7,249.6 392.4,247.4 400.0,245.2 407.6,243.0 415.3,240.8 422.9,238.5 430.6,236.2 438.2,233.9 445.9,231.6 453.5,229.2 461.2,226.7 468.8,224.3 476.4,221.8 484.1,219.2 491.7,216.7 499.4,214.1 507.0,211.5 514.7,208.9 522.3,206.2 530.0,203.5 537.6,200.8 545.2,198.0 552.9,195.2 560.5,192.4 568.2,189.6 575.8,186.7 583.5,183.8 591.1,180.8 598.8,178.0 606.4,175.2 614.0,172.6 621.7,170.1 629.3,167.8 637.0,165.7 644.6,163.7 652.3,161.9 659.9,160.2 667.6,158.7 675.2,157.2 682.8,155.7 690.5,154.2 698.1,152.7 705.8,151.3 713.4,149.8 721.1,148.3 728.7,146.9 736.4,145.4 744.0,143.9"/><rect x="594.0" y="34.0" width="12" height="3" fill="#d62728"/><text x="612.0" y="38.0" font-size="11" fill="#333">fifo</text><polyline fill="none" stroke="#1f77b4" stroke-width="2" points="63.6,284.0 71.3,284.0 78.9,284.0 86.6,284.0 94.2,284.0 101.9,284.0 109.5,284.0 117.2,284.0 124.8,284.0 132.4,284.0 140.1,284.0 147.7,284.0 155.4,284.0 163.0,284.0 170.7,284.0 178.3,284.0 186.0,284.0 193.6,284.0 201.2,284.0 208.9,284.0 216.5,283.9 224.2,283.6 231.8,283.2 239.5,282.6 247.1,281.9 254.8,281.1 262.4,280.1 270.0,279.0 277.7,277.7 285.3,276.3 293.0,274.9 300.6,273.6 308.3,272.2 315.9,270.8 323.6,269.5 331.2,268.1 338.8,266.8 346.5,265.5 354.1,264.2 361.8,262.9 369.4,261.6 377.1,260.3 384.7,259.1 392.4,257.8 400.0,256.6 407.6,255.3 415.3,254.1 422.9,252.9 430.6,251.7 438.2,250.5 445.9,249.4 453.5,248.2 461.2,247.0 468.8,245.9 476.4,244.7 484.1,243.6 491.7,242.4 499.4,241.3 507.0,240.2 514.7,239.1 522.3,238.0 530.0,236.9 537.6,235.9 545.2,234.8 552.9,233.8 560.5,232.7 568.2,231.7 575.8,230.7 583.5,229.7 591.1,228.7 598.8,227.8 606.4,226.9 614.0,226.0 621.7,225.2 629.3,224.4 637.0,223.7 644.6,223.0 652.3,222.4 659.9,221.8 667.6,221.2 675.2,220.7 682.8,220.2 690.5,219.7 698.1,219.2 705.8,218.7 713.4,218.3 721.1,217.9 728.7,217.5 736.4,217.1 744.0,216.7"/><rect x="594.0" y="50.0" width="12" height="3" fill="#1f77b4"/><text x="612.0" y="54.0" font-size="11" fill="#333">lifo</text><polyline fill="none" stroke="#ff7f0e" stroke-width="2" points="63.6,284.0 71.3,284.0 78.9,284.0 86.6,284.0 94.2,284.0 101.9,284.0 109.5,284.0 117.2,284.0 124.8,284.0 132.4,284.0 140.1,284.0 147.7,284.0 155.4,284.0 163.0,284.0 170.7,284.0 178.3,284.0 186.0,284.0 193.6,284.0 201.2,284.0 208.9,284.0 216.5,283.9 224.2,283.7 231.8,283.5 239.5,283.3 247.1,283.2 254.8,283.0 262.4,282.8 270.0,282.6 277.7,282.4 285.3,282.2 293.0,282.2 300.6,282.2 308.3,282.1 315.9,282.1 323.6,282.0 331.2,282.0 338.8,282.0 346.5,282.0 354.1,281.9 361.8,281.9 369.4,281.9 377.1,281.9 384.7,281.9 392.4,281.8 400.0,281.7 407.6,281.7 415.3,281.7 422.9,281.7 430.6,281.7 438.2,281.7 445.9,281.5 453.5,281.5 461.2,281.5 468.8,281.5 476.4,281.5 484.1,281.5 491.7,281.3 499.4,281.3 507.0,281.3 514.7,281.3 522.3,281.3 530.0,281.3 537.6,281.2 545.2,281.2 552.9,281.2 560.5,281.1 568.2,281.1 575.8,281.1 583.5,281.0 591.1,281.0 598.8,281.0 606.4,281.2 614.0,281.3 621.7,281.5 629.3,281.6 637.0,281.8 644.6,281.9 652.3,282.1 659.9,282.2 667.6,282.4 675.2,282.5 682.8,282.4 690.5,282.5 698.1,282.5 705.8,282.5 713.4,282.5 721.1,282.5 728.7,282.4 736.4,282.5 744.0,282.5"/><rect x="594.0" y="66.0" width="12" height="3" fill="#ff7f0e"/><text x="612.0" y="70.0" font-size="11" fill="#333">deadline_naive</text><polyline fill="none" stroke="#2ca02c" stroke-width="2" points="63.6,284.0 71.3,284.0 78.9,284.0 86.6,284.0 94.2,284.0 101.9,284.0 109.5,284.0 117.2,284.0 124.8,284.0 132.4,284.0 140.1,284.0 147.7,284.0 155.4,284.0 163.0,284.0 170.7,284.0 178.3,284.0 186.0,284.0 193.6,284.0 201.2,284.0 208.9,284.0 216.5,283.9 224.2,283.7 231.8,283.6 239.5,283.5 247.1,283.3 254.8,283.2 262.4,283.1 270.0,282.9 277.7,282.8 285.3,282.7 293.0,282.7 300.6,282.7 308.3,282.7 315.9,282.7 323.6,282.7 331.2,282.7 338.8,282.7 346.5,282.8 354.1,282.7 361.8,282.8 369.4,282.8 377.1,282.8 384.7,282.8 392.4,282.8 400.0,282.8 407.6,282.8 415.3,282.8 422.9,282.9 430.6,282.9 438.2,282.9 445.9,282.9 453.5,282.9 461.2,282.9 468.8,282.9 476.4,282.9 484.1,282.9 491.7,282.9 499.4,283.0 507.0,283.0 514.7,283.0 522.3,283.0 530.0,283.0 537.6,283.0 545.2,283.0 552.9,283.1 560.5,283.0 568.2,283.0 575.8,283.0 583.5,283.1 591.1,283.1 598.8,283.1 606.4,283.2 614.0,283.2 621.7,283.2 629.3,283.3 637.0,283.4 644.6,283.4 652.3,283.5 659.9,283.5 667.6,283.5 675.2,283.6 682.8,283.6 690.5,283.6 698.1,283.6 705.8,283.7 713.4,283.7 721.1,283.7 728.7,283.7 736.4,283.7 744.0,283.7"/><rect x="594.0" y="82.0" width="12" height="3" fill="#2ca02c"/><text x="612.0" y="86.0" font-size="11" fill="#333">deadline</text></svg>