<svg xmlns="http://www.w3.org/2000/svg" viewBox="0 0 760 320" font-family="ui-sans-serif,system-ui,sans-serif"><rect width="760" height="320" fill="white"/><text x="56" y="18" font-size="14" font-weight="600" fill="#111">LIFO — newest first, goodput survives (queue still grows)</text><rect x="208.9" y="28" width="76.4" height="256" fill="#f0f0f0"/><text x="211.9" y="40" font-size="10" fill="#999">spike</text><line x1="56" y1="284.0" x2="744" y2="284.0" stroke="#eee"/><text x="50" y="287.0" font-size="10" fill="#888" text-anchor="end">0</text><line x1="56" y1="232.8" x2="744" y2="232.8" stroke="#eee"/><text x="50" y="235.8" font-size="10" fill="#888" text-anchor="end">20</text><line x1="56" y1="181.6" x2="744" y2="181.6" stroke="#eee"/><text x="50" y="184.6" font-size="10" fill="#888" text-anchor="end">40</text><line x1="56" y1="130.4" x2="744" y2="130.4" stroke="#eee"/><text x="50" y="133.4" font-size="10" fill="#888" text-anchor="end">60</text><line x1="56" y1="79.2" x2="744" y2="79.2" stroke="#eee"/><text x="50" y="82.2" font-size="10" fill="#888" text-anchor="end">80</text><line x1="56" y1="28.0" x2="744" y2="28.0" stroke="#eee"/><text x="50" y="31.0" font-size="10" fill="#888" text-anchor="end">100</text><text x="56.0" y="300" font-size="10" fill="#888" text-anchor="middle">0s</text><text x="208.9" y="300" font-size="10" fill="#888" text-anchor="middle">20s</text><text x="361.8" y="300" font-size="10" fill="#888" text-anchor="middle">40s</text><text x="514.7" y="300" font-size="10" fill="#888" text-anchor="middle">60s</text><text x="667.6" y="300" font-size="10" fill="#888" text-anchor="middle">80s</text><polyline fill="none" stroke="#1f77b4" stroke-width="2" points="63.6,115.0 71.3,143.2 78.9,107.4 86.6,133.0 94.2,156.0 101.9,163.7 109.5,138.1 117.2,130.4 124.8,107.4 132.4,99.7 140.1,115.0 147.7,117.6 155.4,120.2 163.0,122.7 170.7,153.4 178.3,130.4 186.0,107.4 193.6,148.3 201.2,122.7 208.9,133.0 216.5,84.3 224.2,81.8 231.8,79.2 239.5,79.2 247.1,84.3 254.8,79.2 262.4,79.2 270.0,84.3 277.7,79.2 285.3,79.2 293.0,79.2 300.6,84.3 308.3,79.2 315.9,79.2 323.6,84.3 331.2,79.2 338.8,79.2 346.5,79.2 354.1,79.2 361.8,84.3 369.4,79.2 377.1,84.3 384.7,79.2 392.4,79.2 400.0,79.2 407.6,84.3 415.3,79.2 422.9,79.2 430.6,84.3 438.2,79.2 445.9,79.2 453.5,79.2 461.2,84.3 468.8,79.2 476.4,84.3 484.1,79.2 491.7,79.2 499.4,79.2 507.0,84.3 514.7,79.2 522.3,79.2 530.0,84.3 537.6,79.2 545.2,79.2 552.9,79.2 560.5,84.3 568.2,79.2 575.8,84.3 583.5,79.2 591.1,79.2 598.8,79.2 606.4,79.2 614.0,79.2 621.7,89.4 629.3,79.2 637.0,79.2 644.6,79.2 652.3,79.2 659.9,79.2 667.6,84.3 675.2,84.3 682.8,79.2 690.5,79.2 698.1,79.2 705.8,79.2 713.4,81.8 721.1,81.8 728.7,84.3 736.4,79.2 744.0,79.2"/><polyline fill="none" stroke="#2ca02c" stroke-width="2" points="63.6,115.0 71.3,143.2 78.9,107.4 86.6,133.0 94.2,156.0 101.9,163.7 109.5,138.1 117.2,130.4 124.8,107.4 132.4,99.7 140.1,115.0 147.7,117.6 155.4,120.2 163.0,122.7 170.7,153.4 178.3,130.4 186.0,107.4 193.6,148.3 201.2,122.7 208.9,133.0 216.5,84.3 224.2,81.8 231.8,79.2 239.5,79.2 247.1,84.3 254.8,79.2 262.4,79.2 270.0,84.3 277.7,79.2 285.3,79.2 293.0,79.2 300.6,84.3 308.3,79.2 315.9,79.2 323.6,84.3 331.2,79.2 338.8,79.2 346.5,79.2 354.1,79.2 361.8,84.3 369.4,79.2 377.1,84.3 384.7,79.2 392.4,79.2 400.0,79.2 407.6,84.3 415.3,79.2 422.9,79.2 430.6,84.3 438.2,79.2 445.9,79.2 453.5,79.2 461.2,84.3 468.8,79.2 476.4,84.3 484.1,79.2 491.7,79.2 499.4,79.2 507.0,84.3 514.7,79.2 522.3,79.2 530.0,84.3 537.6,79.2 545.2,79.2 552.9,79.2 560.5,84.3 568.2,79.2 575.8,84.3 583.5,79.2 591.1,79.2 598.8,79.2 606.4,79.2 614.0,79.2 621.7,89.4 629.3,79.2 637.0,79.2 644.6,79.2 652.3,79.2 659.9,79.2 667.6,84.3 675.2,84.3 682.8,79.2 690.5,79.2 698.1,79.2 705.8,79.2 713.4,81.8 721.1,81.8 728.7,84.3 736.4,79.2 744.0,79.2"/><rect x="594.0" y="34.0" width="12" height="3" fill="#1f77b4"/><text x="612.0" y="38.0" font-size="11" fill="#333">throughput</text><rect x="594.0" y="50.0" width="12" height="3" fill="#2ca02c"/><text x="612.0" y="54.0" font-size="11" fill="#333">goodput</text></svg>