<svg xmlns="http://www.w3.org/2000/svg" viewBox="0 0 760 320" font-family="ui-sans-serif,system-ui,sans-serif"><rect width="760" height="320" fill="white"/><text x="56" y="18" font-size="14" font-weight="600" fill="#111">FIFO — throughput flat, goodput collapses — queue depth</text><rect x="208.9" y="28" width="76.4" height="256" fill="#f0f0f0"/><text x="211.9" y="40" font-size="10" fill="#999">spike</text><line x1="56" y1="284.0" x2="744" y2="284.0" stroke="#eee"/><text x="50" y="287.0" font-size="10" fill="#888" text-anchor="end">0</text><line x1="56" y1="232.8" x2="744" y2="232.8" stroke="#eee"/><text x="50" y="235.8" font-size="10" fill="#888" text-anchor="end">100k</text><line x1="56" y1="181.6" x2="744" y2="181.6" stroke="#eee"/><text x="50" y="184.6" font-size="10" fill="#888" text-anchor="end">200k</text><line x1="56" y1="130.4" x2="744" y2="130.4" stroke="#eee"/><text x="50" y="133.4" font-size="10" fill="#888" text-anchor="end">300k</text><line x1="56" y1="79.2" x2="744" y2="79.2" stroke="#eee"/><text x="50" y="82.2" font-size="10" fill="#888" text-anchor="end">400k</text><line x1="56" y1="28.0" x2="744" y2="28.0" stroke="#eee"/><text x="50" y="31.0" font-size="10" fill="#888" text-anchor="end">500k</text><text x="56.0" y="300" font-size="10" fill="#888" text-anchor="middle">0s</text><text x="208.9" y="300" font-size="10" fill="#888" text-anchor="middle">20s</text><text x="361.8" y="300" font-size="10" fill="#888" text-anchor="middle">40s</text><text x="514.7" y="300" font-size="10" fill="#888" text-anchor="middle">60s</text><text x="667.6" y="300" font-size="10" fill="#888" text-anchor="middle">80s</text><polyline fill="none" stroke="#d62728" stroke-width="2" points="63.6,284.0 71.3,284.0 78.9,284.0 86.6,284.0 94.2,284.0 101.9,284.0 109.5,284.0 117.2,284.0 124.8,284.0 132.4,284.0 140.1,284.0 147.7,284.0 155.4,284.0 163.0,284.0 170.7,284.0 178.3,284.0 186.0,284.0 193.6,284.0 201.2,284.0 208.9,284.0 216.5,283.9 224.2,283.6 231.8,283.1 239.5,282.5 247.1,281.7 254.8,280.7 262.4,279.5 270.0,278.1 277.7,276.6 285.3,274.9 293.0,273.1 300.6,271.3 308.3,269.5 315.9,267.6 323.6,265.7 331.2,263.8 338.8,261.9 346.5,259.9 354.1,257.9 361.8,255.8 369.4,253.8 377.1,251.7 384.7,249.6 392.4,247.4 400.0,245.2 407.6,243.0 415.3,240.8 422.9,238.5 430.6,236.2 438.2,233.9 445.9,231.6 453.5,229.2 461.2,226.7 468.8,224.3 476.4,221.8 484.1,219.2 491.7,216.7 499.4,214.1 507.0,211.5 514.7,208.9 522.3,206.2 530.0,203.5 537.6,200.8 545.2,198.0 552.9,195.2 560.5,192.4 568.2,189.6 575.8,186.7 583.5,183.8 591.1,180.8 598.8,178.0 606.4,175.2 614.0,172.6 621.7,170.1 629.3,167.8 637.0,165.7 644.6,163.7 652.3,161.9 659.9,160.2 667.6,158.7 675.2,157.2 682.8,155.7 690.5,154.2 698.1,152.7 705.8,151.3 713.4,149.8 721.1,148.3 728.7,146.9 736.4,145.4 744.0,143.9"/><rect x="594.0" y="34.0" width="12" height="3" fill="#d62728"/><text x="612.0" y="38.0" font-size="11" fill="#333">queue depth</text></svg>