<svg xmlns="http://www.w3.org/2000/svg" viewBox="0 0 760 320" font-family="ui-sans-serif,system-ui,sans-serif"><rect width="760" height="320" fill="white"/><text x="56" y="18" font-size="14" font-weight="600" fill="#111">Deadline drop, margin 0 — queue bounded, goodput still 0 — queue depth</text><rect x="208.9" y="28" width="76.4" height="256" fill="#f0f0f0"/><text x="211.9" y="40" font-size="10" fill="#999">spike</text><line x1="56" y1="284.0" x2="744" y2="284.0" stroke="#eee"/><text x="50" y="287.0" font-size="10" fill="#888" text-anchor="end">0</text><line x1="56" y1="232.8" x2="744" y2="232.8" stroke="#eee"/><text x="50" y="235.8" font-size="10" fill="#888" text-anchor="end">2k</text><line x1="56" y1="181.6" x2="744" y2="181.6" stroke="#eee"/><text x="50" y="184.6" font-size="10" fill="#888" text-anchor="end">4k</text><line x1="56" y1="130.4" x2="744" y2="130.4" stroke="#eee"/><text x="50" y="133.4" font-size="10" fill="#888" text-anchor="end">6k</text><line x1="56" y1="79.2" x2="744" y2="79.2" stroke="#eee"/><text x="50" y="82.2" font-size="10" fill="#888" text-anchor="end">8k</text><line x1="56" y1="28.0" x2="744" y2="28.0" stroke="#eee"/><text x="50" y="31.0" font-size="10" fill="#888" text-anchor="end">10k</text><text x="56.0" y="300" font-size="10" fill="#888" text-anchor="middle">0s</text><text x="208.9" y="300" font-size="10" fill="#888" text-anchor="middle">20s</text><text x="361.8" y="300" font-size="10" fill="#888" text-anchor="middle">40s</text><text x="514.7" y="300" font-size="10" fill="#888" text-anchor="middle">60s</text><text x="667.6" y="300" font-size="10" fill="#888" text-anchor="middle">80s</text><polyline fill="none" stroke="#d62728" stroke-width="2" points="63.6,284.0 71.3,284.0 78.9,283.9 86.6,284.0 94.2,284.0 101.9,284.0 109.5,284.0 117.2,283.9 124.8,283.9 132.4,284.0 140.1,283.9 147.7,284.0 155.4,284.0 163.0,284.0 170.7,284.0 178.3,284.0 186.0,284.0 193.6,284.0 201.2,284.0 208.9,284.0 216.5,277.7 224.2,268.7 231.8,259.4 239.5,250.5 247.1,241.7 254.8,232.5 262.4,221.8 270.0,212.7 277.7,203.6 285.3,195.2 293.0,194.3 300.6,192.8 308.3,188.2 315.9,187.2 323.6,186.3 331.2,186.0 338.8,184.9 346.5,184.5 354.1,179.2 361.8,178.5 369.4,177.2 377.1,177.5 384.7,176.6 392.4,175.4 400.0,169.7 407.6,169.6 415.3,169.2 422.9,169.1 430.6,168.2 438.2,166.9 445.9,161.0 453.5,161.0 461.2,160.0 468.8,158.7 476.4,157.9 484.1,156.5 491.7,151.4 499.4,150.7 507.0,150.4 514.7,149.6 522.3,149.6 530.0,147.9 537.6,141.7 545.2,141.5 552.9,141.7 560.5,141.1 568.2,140.7 575.8,139.2 583.5,131.9 591.1,131.7 598.8,134.9 606.4,144.1 614.0,151.5 621.7,159.5 629.3,163.1 637.0,171.6 644.6,180.7 652.3,188.6 659.9,196.5 667.6,204.9 675.2,207.6 682.8,206.0 690.5,206.6 698.1,207.3 705.8,208.1 713.4,208.9 721.1,208.3 728.7,206.5 736.4,206.7 744.0,206.9"/><rect x="594.0" y="34.0" width="12" height="3" fill="#d62728"/><text x="612.0" y="38.0" font-size="11" fill="#333">queue depth</text></svg>