<svg xmlns="http://www.w3.org/2000/svg" viewBox="0 0 760 320" font-family="ui-sans-serif,system-ui,sans-serif"><rect width="760" height="320" fill="white"/><text x="56" y="18" font-size="14" font-weight="600" fill="#111">FIFO — throughput flat, goodput collapses — offered load</text><rect x="208.9" y="28" width="76.4" height="256" fill="#f0f0f0"/><text x="211.9" y="40" font-size="10" fill="#999">spike</text><line x1="56" y1="284.0" x2="744" y2="284.0" stroke="#eee"/><text x="50" y="287.0" font-size="10" fill="#888" text-anchor="end">0</text><line x1="56" y1="232.8" x2="744" y2="232.8" stroke="#eee"/><text x="50" y="235.8" font-size="10" fill="#888" text-anchor="end">2k</text><line x1="56" y1="181.6" x2="744" y2="181.6" stroke="#eee"/><text x="50" y="184.6" font-size="10" fill="#888" text-anchor="end">4k</text><line x1="56" y1="130.4" x2="744" y2="130.4" stroke="#eee"/><text x="50" y="133.4" font-size="10" fill="#888" text-anchor="end">6k</text><line x1="56" y1="79.2" x2="744" y2="79.2" stroke="#eee"/><text x="50" y="82.2" font-size="10" fill="#888" text-anchor="end">8k</text><line x1="56" y1="28.0" x2="744" y2="28.0" stroke="#eee"/><text x="50" y="31.0" font-size="10" fill="#888" text-anchor="end">10k</text><text x="56.0" y="300" font-size="10" fill="#888" text-anchor="middle">0s</text><text x="208.9" y="300" font-size="10" fill="#888" text-anchor="middle">20s</text><text x="361.8" y="300" font-size="10" fill="#888" text-anchor="middle">40s</text><text x="514.7" y="300" font-size="10" fill="#888" text-anchor="middle">60s</text><text x="667.6" y="300" font-size="10" fill="#888" text-anchor="middle">80s</text><polyline fill="none" stroke="#9467bd" stroke-width="2" points="63.6,282.3 71.3,282.5 78.9,282.2 86.6,282.6 94.2,282.7 101.9,282.8 109.5,282.6 117.2,282.4 124.8,282.2 132.4,282.2 140.1,282.2 147.7,282.4 155.4,282.4 163.0,282.4 170.7,282.6 178.3,282.5 186.0,282.2 193.6,282.6 201.2,282.4 208.9,282.5 216.5,275.4 224.2,268.4 231.8,259.1 239.5,250.1 247.1,241.0 254.8,232.0 262.4,222.6 270.0,213.9 277.7,204.6 285.3,195.2 293.0,193.7 300.6,191.9 308.3,190.5 315.9,188.7 323.6,187.8 331.2,186.0 338.8,185.4 346.5,183.1 354.1,181.6 361.8,180.2 369.4,179.1 377.1,177.2 384.7,175.6 392.4,174.0 400.0,173.5 407.6,172.3 415.3,170.7 422.9,168.7 430.6,166.8 438.2,165.7 445.9,163.9 453.5,163.1 461.2,160.4 468.8,158.8 476.4,156.9 484.1,155.4 491.7,154.7 499.4,153.1 507.0,151.9 514.7,150.0 522.3,148.2 530.0,146.2 537.6,145.0 545.2,144.8 552.9,143.0 560.5,142.0 568.2,139.3 575.8,137.7 583.5,136.5 591.1,134.8 598.8,137.5 606.4,144.2 614.0,151.7 621.7,159.4 629.3,167.2 637.0,174.8 644.6,183.1 652.3,190.0 659.9,197.5 667.6,205.1 675.2,207.8 682.8,207.7 690.5,208.4 698.1,207.8 705.8,208.4 713.4,208.7 721.1,208.9 728.7,208.7 736.4,208.2 744.0,208.1"/><rect x="594.0" y="34.0" width="12" height="3" fill="#9467bd"/><text x="612.0" y="38.0" font-size="11" fill="#333">offered (incl. retries)</text></svg>