<svg xmlns="http://www.w3.org/2000/svg" viewBox="0 0 760 320" font-family="ui-sans-serif,system-ui,sans-serif"><rect width="760" height="320" fill="white"/><text x="56" y="18" font-size="14" font-weight="600" fill="#111">Goodput vs drop margin (work time = 50 ms)</text><line x1="56" y1="284.0" x2="744" y2="284.0" stroke="#eee"/><text x="50" y="287.0" font-size="10" fill="#888" text-anchor="end">0%</text><line x1="56" y1="232.8" x2="744" y2="232.8" stroke="#eee"/><text x="50" y="235.8" font-size="10" fill="#888" text-anchor="end">20%</text><line x1="56" y1="181.6" x2="744" y2="181.6" stroke="#eee"/><text x="50" y="184.6" font-size="10" fill="#888" text-anchor="end">40%</text><line x1="56" y1="130.4" x2="744" y2="130.4" stroke="#eee"/><text x="50" y="133.4" font-size="10" fill="#888" text-anchor="end">60%</text><line x1="56" y1="79.2" x2="744" y2="79.2" stroke="#eee"/><text x="50" y="82.2" font-size="10" fill="#888" text-anchor="end">80%</text><line x1="56" y1="28.0" x2="744" y2="28.0" stroke="#eee"/><text x="50" y="31.0" font-size="10" fill="#888" text-anchor="end">100%</text><text x="56.0" y="300" font-size="10" fill="#888" text-anchor="middle">0</text><text x="193.6" y="300" font-size="10" fill="#888" text-anchor="middle">50</text><text x="331.2" y="300" font-size="10" fill="#888" text-anchor="middle">100</text><text x="468.8" y="300" font-size="10" fill="#888" text-anchor="middle">150</text><text x="606.4" y="300" font-size="10" fill="#888" text-anchor="middle">200</text><text x="744.0" y="300" font-size="10" fill="#888" text-anchor="middle">250</text><text x="380.0" y="316" font-size="10" fill="#888" text-anchor="middle">drop margin (ms)</text><line x1="193.6" y1="28" x2="193.6" y2="284" stroke="#d62728" stroke-width="1" stroke-dasharray="4 3"/><text x="197.6" y="40" font-size="10" fill="#d62728">work time</text><polyline fill="none" stroke="#2ca02c" stroke-width="2" points="56.0,209.5 138.6,209.8 193.6,44.9 207.4,28.0 221.1,28.0 248.6,28.0 331.2,28.0 468.8,28.0 744.0,28.0"/><circle cx="56.0" cy="209.5" r="3" fill="#2ca02c"/><circle cx="138.6" cy="209.8" r="3" fill="#2ca02c"/><circle cx="193.6" cy="44.9" r="3" fill="#2ca02c"/><circle cx="207.4" cy="28.0" r="3" fill="#2ca02c"/><circle cx="221.1" cy="28.0" r="3" fill="#2ca02c"/><circle cx="248.6" cy="28.0" r="3" fill="#2ca02c"/><circle cx="331.2" cy="28.0" r="3" fill="#2ca02c"/><circle cx="468.8" cy="28.0" r="3" fill="#2ca02c"/><circle cx="744.0" cy="28.0" r="3" fill="#2ca02c"/></svg>